<svg height="32" viewBox="0 0 32 32" width="32" xmlns="http://www.w3.org/2000/svg"><g fill="none" fill-rule="evenodd"><path d="m0 0h32v32h-32z" fill="#1d1e1f"/><path d="m22.2857143 10.1503759h-20.57142859c-.94660714 0-1.71428571.7575776-1.71428571 1.6917294v1.6917293c0 .9341518.76767857 1.6917293 1.71428571 1.6917293h20.57142859c.9466071 0 1.7142857-.7575775 1.7142857-1.6917293v-1.6917293c0-.9341518-.7676786-1.6917294-1.7142857-1.6917294zm0-10.1503759h-20.57142859c-.94660714 0-1.71428571.75757754-1.71428571 1.69172932v1.69172933c0 .93415178.76767857 1.69172932 1.71428571 1.69172932h20.57142859c.9466071 0 1.7142857-.75757754 1.7142857-1.69172932v-1.69172933c0-.93415178-.7676786-1.69172932-1.7142857-1.69172932z" fill="#39a2e0" fill-rule="nonzero" transform="translate(4 9.263158)"/></g></svg>