<svg height="180" viewBox="0 0 180 180" width="180" xmlns="http://www.w3.org/2000/svg"><path d="m125.357143 57.8571429h-115.71428586c-5.32466518 0-9.64285714 4.3181919-9.64285714 9.6428571v9.6428571c0 5.3246652 4.31819196 9.6428572 9.64285714 9.6428572h115.71428586c5.324665 0 9.642857-4.318192 9.642857-9.6428572v-9.6428571c0-5.3246652-4.318192-9.6428571-9.642857-9.6428571zm0-57.8571429h-115.71428586c-5.32466518 0-9.64285714 4.31819196-9.64285714 9.64285714v9.64285716c0 5.3246652 4.31819196 9.6428571 9.64285714 9.6428571h115.71428586c5.324665 0 9.642857-4.3181919 9.642857-9.6428571v-9.64285716c0-5.32466518-4.318192-9.64285714-9.642857-9.64285714z" transform="translate(22.5 50.4)"/></svg>